<?xml version="1.0" encoding="UTF-8"?>
<!DOCTYPE svg PUBLIC "-//W3C//DTD SVG 1.1//EN" "http://www.w3.org/Graphics/SVG/1.1/DTD/svg11.dtd">
<svg xmlns="http://www.w3.org/2000/svg" version="1.1" width="256px" height="256px" style="shape-rendering:geometricPrecision; text-rendering:geometricPrecision; image-rendering:optimizeQuality; fill-rule:evenodd; clip-rule:evenodd" xmlns:xlink="http://www.w3.org/1999/xlink">
<g><path style="opacity:1" fill="#ebfe6c" d="M 34.5,-0.5 C 107.5,-0.5 180.5,-0.5 253.5,-0.5C 253.833,0.5 254.5,1.16667 255.5,1.5C 255.5,74.5 255.5,147.5 255.5,220.5C 252.282,240.052 240.948,251.718 221.5,255.5C 158.5,255.5 95.5,255.5 32.5,255.5C 14.5,251.5 3.5,240.5 -0.5,222.5C -0.5,159.5 -0.5,96.5 -0.5,33.5C 3.28159,14.0518 14.9483,2.71843 34.5,-0.5 Z"/></g>
<g><path style="opacity:1" fill="#000000" d="M 30.5,7.5 C 84.8333,7.5 139.167,7.5 193.5,7.5C 193.333,21.1707 193.5,34.8374 194,48.5C 194.833,52 197,54.1667 200.5,55C 216.163,55.4999 231.83,55.6666 247.5,55.5C 247.667,111.834 247.5,168.168 247,224.5C 243.5,236 236,243.5 224.5,247C 159.833,247.667 95.1667,247.667 30.5,247C 19,243.5 11.5,236 8,224.5C 7.33333,159.833 7.33333,95.1667 8,30.5C 11.684,18.9837 19.184,11.3171 30.5,7.5 Z"/></g>
<g><path style="opacity:1" fill="#ebff6c" d="M 173.5,13.5 C 175.903,13.695 177.57,14.8616 178.5,17C 166.938,48.5164 155.272,80.0164 143.5,111.5C 149.557,114.057 153.724,118.39 156,124.5C 156.667,125.833 156.667,127.167 156,128.5C 142.1,125.877 128.266,122.877 114.5,119.5C 120.93,112.63 128.93,109.63 138.5,110.5C 149.884,78.065 161.551,45.7316 173.5,13.5 Z"/></g>
<g><path style="opacity:1" fill="#000000" d="M 204.5,14.5 C 211.167,14.5 217.833,14.5 224.5,14.5C 224.5,15.8333 224.5,17.1667 224.5,18.5C 221.833,18.5 219.167,18.5 216.5,18.5C 216.5,26.5 216.5,34.5 216.5,42.5C 215.167,42.5 213.833,42.5 212.5,42.5C 212.5,34.5 212.5,26.5 212.5,18.5C 209.833,18.5 207.167,18.5 204.5,18.5C 204.5,17.1667 204.5,15.8333 204.5,14.5 Z"/></g>
<g><path style="opacity:1" fill="#000000" d="M 236.5,14.5 C 238.167,14.5 239.833,14.5 241.5,14.5C 241.935,22.6112 241.435,30.6112 240,38.5C 238.786,40.0488 237.286,41.2155 235.5,42C 231.514,42.4988 227.514,42.6655 223.5,42.5C 223.5,40.8333 223.5,39.1667 223.5,37.5C 227.182,37.6653 230.848,37.4986 234.5,37C 235,36.5 235.5,36 236,35.5C 236.5,28.5079 236.666,21.5079 236.5,14.5 Z"/></g>
<g><path style="opacity:1" fill="#ebfe6c" d="M 109.5,124.5 C 125.191,127.393 140.858,130.393 156.5,133.5C 153.43,149.211 148.263,164.211 141,178.5C 136.928,179.051 132.761,179.051 128.5,178.5C 130,173.175 131.166,167.842 132,162.5C 128.628,167.938 124.795,172.938 120.5,177.5C 105.879,175.339 91.2123,173.506 76.5,172C 84.4135,169.423 90.5801,164.589 95,157.5C 99.8455,146.478 104.679,135.478 109.5,124.5 Z"/></g>
<g><path style="opacity:1" fill="#ebff6c" d="M 50.5,186.5 C 51.5,186.5 52.5,186.5 53.5,186.5C 53.5,189.167 53.5,191.833 53.5,194.5C 59.0389,193.638 63.8722,194.972 68,198.5C 69.339,203.736 69.839,209.07 69.5,214.5C 68.1667,214.5 66.8333,214.5 65.5,214.5C 65.6658,209.821 65.4992,205.155 65,200.5C 61.4172,198.71 57.5839,198.043 53.5,198.5C 53.5,203.833 53.5,209.167 53.5,214.5C 52.5,214.5 51.5,214.5 50.5,214.5C 50.5,205.167 50.5,195.833 50.5,186.5 Z"/></g>
<g><path style="opacity:1" fill="#ebff6c" d="M 169.5,187.5 C 170.833,187.5 172.167,187.5 173.5,187.5C 173.5,188.833 173.5,190.167 173.5,191.5C 172.167,191.5 170.833,191.5 169.5,191.5C 169.5,190.167 169.5,188.833 169.5,187.5 Z"/></g>
<g><path style="opacity:1" fill="#ebff6c" d="M 29.5,189.5 C 35.1667,189.5 40.8333,189.5 46.5,189.5C 46.5,190.833 46.5,192.167 46.5,193.5C 44.5,193.5 42.5,193.5 40.5,193.5C 40.5,200.5 40.5,207.5 40.5,214.5C 39.1667,214.5 37.8333,214.5 36.5,214.5C 36.5,207.5 36.5,200.5 36.5,193.5C 34.1667,193.5 31.8333,193.5 29.5,193.5C 29.5,192.167 29.5,190.833 29.5,189.5 Z"/></g>
<g><path style="opacity:1" fill="#ebfe6c" d="M 115.5,189.5 C 116.833,189.5 118.167,189.5 119.5,189.5C 119.666,195.842 119.5,202.175 119,208.5C 118.333,209.833 117.667,211.167 117,212.5C 112.706,214.248 108.206,214.915 103.5,214.5C 103.5,212.833 103.5,211.167 103.5,209.5C 106.85,209.665 110.183,209.498 113.5,209C 114,208.5 114.5,208 115,207.5C 115.499,201.509 115.666,195.509 115.5,189.5 Z"/></g>
<g><path style="opacity:1" fill="#ebff6c" d="M 178.5,190.5 C 179.833,190.5 181.167,190.5 182.5,190.5C 182.5,191.833 182.5,193.167 182.5,194.5C 184.167,194.5 185.833,194.5 187.5,194.5C 187.5,195.833 187.5,197.167 187.5,198.5C 185.833,198.5 184.167,198.5 182.5,198.5C 182.5,202.5 182.5,206.5 182.5,210.5C 184.167,210.5 185.833,210.5 187.5,210.5C 187.5,211.833 187.5,213.167 187.5,214.5C 184.635,214.945 182.135,214.278 180,212.5C 179.22,207.076 178.053,201.743 176.5,196.5C 177.754,194.666 178.421,192.666 178.5,190.5 Z"/></g>
<g><path style="opacity:1" fill="#ebfe6c" d="M 77.5,194.5 C 80.8499,194.335 84.1832,194.502 87.5,195C 91.5008,197.107 92.5008,200.273 90.5,204.5C 89.9747,205.192 89.3081,205.692 88.5,206C 84.8484,206.499 81.1817,206.665 77.5,206.5C 77.33,207.822 77.6634,208.989 78.5,210C 82.4862,210.499 86.4862,210.666 90.5,210.5C 90.5,211.833 90.5,213.167 90.5,214.5C 76.2165,217.968 70.7165,212.635 74,198.5C 74.6897,196.65 75.8564,195.316 77.5,194.5 Z"/></g>
<g><path style="opacity:1" fill="#e9fc6c" d="M 124.5,194.5 C 140.355,192.522 145.355,199.022 139.5,214C 134.778,214.777 130.111,214.61 125.5,213.5C 122.833,210.167 122.833,206.833 125.5,203.5C 129.429,202.567 133.429,202.234 137.5,202.5C 137.67,201.178 137.337,200.011 136.5,199C 132.514,198.501 128.514,198.334 124.5,198.5C 124.5,197.167 124.5,195.833 124.5,194.5 Z"/></g>
<g><path style="opacity:1" fill="#e4f669" d="M 147.5,194.5 C 162.878,192.508 168.544,199.175 164.5,214.5C 163.5,214.5 162.5,214.5 161.5,214.5C 161.879,209.703 161.379,205.036 160,200.5C 159.5,200 159,199.5 158.5,199C 155.518,198.502 152.518,198.335 149.5,198.5C 149.5,203.833 149.5,209.167 149.5,214.5C 148.167,214.5 146.833,214.5 145.5,214.5C 145.334,208.824 145.501,203.157 146,197.5C 146.513,196.473 147.013,195.473 147.5,194.5 Z"/></g>
<g><path style="opacity:1" fill="#ebff6c" d="M 169.5,194.5 C 170.833,194.5 172.167,194.5 173.5,194.5C 173.5,201.167 173.5,207.833 173.5,214.5C 172.167,214.5 170.833,214.5 169.5,214.5C 169.5,207.833 169.5,201.167 169.5,194.5 Z"/></g>
<g><path style="opacity:1" fill="#eafd6c" d="M 195.5,194.5 C 207.35,193.849 211.517,199.182 208,210.5C 202.333,215.833 196.667,215.833 191,210.5C 188.667,203.958 190.167,198.624 195.5,194.5 Z"/></g>
<g><path style="opacity:1" fill="#ebff6c" d="M 216.5,194.5 C 219.5,194.5 222.5,194.5 225.5,194.5C 225.5,195.833 225.5,197.167 225.5,198.5C 222.552,198.223 219.719,198.556 217,199.5C 216.501,204.489 216.334,209.489 216.5,214.5C 215.5,214.5 214.5,214.5 213.5,214.5C 213.334,208.491 213.501,202.491 214,196.5C 214.995,195.934 215.828,195.267 216.5,194.5 Z"/></g>
<g><path style="opacity:1" fill="#000100" d="M 78.5,198.5 C 82.3155,197.918 85.6488,198.752 88.5,201C 85.3014,203.277 81.6348,204.11 77.5,203.5C 77.366,201.708 77.6993,200.042 78.5,198.5 Z"/></g>
<g><path style="opacity:1" fill="#000000" d="M 195.5,198.5 C 204.936,197.53 207.603,201.363 203.5,210C 193.887,211.306 191.221,207.473 195.5,198.5 Z"/></g>
<g><path style="opacity:1" fill="#000000" d="M 128.5,205.5 C 131.5,205.5 134.5,205.5 137.5,205.5C 137.5,207.167 137.5,208.833 137.5,210.5C 134.15,210.665 130.817,210.498 127.5,210C 126.257,208.184 126.59,206.684 128.5,205.5 Z"/></g>
</svg>
